<?xml version="1.0" encoding="UTF-8" standalone="no"?>
<!-- Created with Inkscape (http://www.inkscape.org/) -->

<svg
   xmlns:dc="http://purl.org/dc/elements/1.1/"
   xmlns:cc="http://creativecommons.org/ns#"
   xmlns:rdf="http://www.w3.org/1999/02/22-rdf-syntax-ns#"
   xmlns:svg="http://www.w3.org/2000/svg"
   xmlns="http://www.w3.org/2000/svg"
   xmlns:sodipodi="http://sodipodi.sourceforge.net/DTD/sodipodi-0.dtd"
   xmlns:inkscape="http://www.inkscape.org/namespaces/inkscape"
   width="64"
   height="64"
   id="svg2985"
   version="1.1"
   inkscape:version="0.48.1 r9760"
   sodipodi:docname="drawing.svg"
   style="display:inline">
  <defs
     id="defs2987" />
  <sodipodi:namedview
     id="base"
     pagecolor="#ffffff"
     bordercolor="#666666"
     borderopacity="1.0"
     inkscape:pageopacity="0.0"
     inkscape:pageshadow="2"
     inkscape:zoom="9.8894544"
     inkscape:cx="31.836649"
     inkscape:cy="39.753112"
     inkscape:current-layer="layer1"
     showgrid="true"
     inkscape:document-units="px"
     inkscape:grid-bbox="true"
     inkscape:window-width="1114"
     inkscape:window-height="907"
     inkscape:window-x="818"
     inkscape:window-y="24"
     inkscape:window-maximized="0" />
  <metadata
     id="metadata2990">
    <rdf:RDF>
      <cc:Work
         rdf:about="">
        <dc:format>image/svg+xml</dc:format>
        <dc:type
           rdf:resource="http://purl.org/dc/dcmitype/StillImage" />
      </cc:Work>
    </rdf:RDF>
  </metadata>
  <g
     id="layer1"
     inkscape:label="Layer 1"
     inkscape:groupmode="layer"
     style="display:inline">
    <g
       id="g3197"
       transform="translate(-0.80884144,0.17178667)"
       style="fill:#000000">
      <path
         style="fill:#000000;fill-opacity:1"
         d="m 55.161948,52.702224 c -0.273128,-0.07305 -0.838179,-0.435179 -1.702508,-1.091117 -0.358655,-0.272182 -0.746691,-0.491633 -0.869311,-0.491633 -0.253135,0 -0.76939,-0.250175 -1.234258,-0.598117 -0.175123,-0.131074 -0.596218,-0.329436 -0.935767,-0.440803 -0.339549,-0.111367 -0.664583,-0.239652 -0.722298,-0.285076 -0.05772,-0.04543 -0.31939,-0.146277 -0.581501,-0.224116 -0.373594,-0.110945 -0.563002,-0.244033 -0.876606,-0.615947 -0.609704,-0.723071 -0.730236,-0.761614 -2.507541,-0.801829 -1.296167,-0.02933 -1.605087,-0.06447 -1.924471,-0.218901 -0.270685,-0.130886 -0.575769,-0.183964 -1.057384,-0.183964 -0.742322,0 -0.853574,0.04243 -1.826223,0.69653 -0.354155,0.238166 -0.667169,0.409777 -0.695586,0.38136 -0.02842,-0.02842 -0.0018,-0.101498 0.05906,-0.162401 0.301549,-0.301548 -0.08552,-0.476177 -0.563295,-0.254133 -0.209936,0.09757 -0.81883,0.820011 -0.921639,1.09351 -0.06576,0.174949 -0.689482,0.394151 -1.126733,0.395983 -0.184906,7.49e-4 -0.517919,0.09751 -0.740029,0.214962 -0.329826,0.174415 -0.482579,0.354819 -0.833513,0.984382 -0.488577,0.87649 -0.731733,1.066378 -1.633245,1.275452 -0.690456,0.160128 -2.660165,0.125506 -2.943991,-0.05175 -0.09477,-0.05918 -0.217832,-0.228224 -0.273479,-0.375646 -0.07473,-0.197989 -0.163224,-0.268042 -0.338595,-0.268042 -0.13058,0 -0.275189,0.06749 -0.321352,0.149979 -0.127526,0.227877 -0.413414,0.118577 -0.514677,-0.196767 -0.04958,-0.154401 -0.147818,-0.347209 -0.218302,-0.428462 -0.191817,-0.221122 -0.157631,-0.397689 0.152575,-0.788032 0.327639,-0.412279 0.36697,-0.846599 0.106899,-1.18048 -0.09561,-0.122742 -0.23215,-0.385928 -0.303427,-0.584858 -0.254096,-0.709171 -0.875926,-0.984088 -1.498126,-0.662337 -0.15494,0.08012 -0.437089,0.13276 -0.626995,0.116971 -0.318611,-0.02649 -0.343735,-0.04996 -0.325227,-0.303869 0.02225,-0.305278 -0.110586,-0.520239 -0.32149,-0.520239 -0.07598,0 -0.25616,-0.126328 -0.400393,-0.280729 -0.409494,-0.438365 -0.990963,-0.345234 -1.833388,0.293646 -0.457937,0.347291 -0.682721,0.440475 -0.702463,0.291207 -0.0051,-0.0386 -0.02035,-0.175456 -0.03389,-0.304124 -0.04049,-0.384985 -0.225624,-0.978626 -0.352617,-1.130694 -0.06539,-0.0783 -0.304942,-0.266489 -0.532345,-0.418203 -0.361396,-0.241108 -0.496909,-0.275648 -1.076132,-0.274288 -0.622646,0.0015 -0.736144,0.03748 -1.879166,0.596294 -1.259068,0.61555 -2.406757,1.039738 -2.813128,1.039738 -0.326297,0 -0.36616,-0.184371 -0.233156,-1.078358 0.06371,-0.428254 0.08937,-0.862067 0.057,-0.964029 -0.0884,-0.278532 -0.63901,-0.505412 -1.042749,-0.429671 -0.435856,0.08177 -1.070299,0.567084 -1.279093,0.978442 -0.260182,0.512599 -0.724571,1.58399 -0.724571,1.671655 0,0.04388 -0.06316,0.132196 -0.140365,0.196267 -0.191635,0.159044 -0.188792,-0.04528 0.0058,-0.418512 0.134062,-0.2571 0.132249,-0.287509 -0.02397,-0.401873 -0.209059,-0.153047 -0.543773,-0.07793 -0.91762,0.205922 -0.154401,0.117234 -0.470222,0.308201 -0.701825,0.424369 -0.231602,0.116168 -0.509768,0.292316 -0.618146,0.391441 -0.108379,0.09913 -0.559156,0.322381 -1.001727,0.496127 -0.44257,0.173746 -0.9434298,0.419688 -1.1130205,0.546538 C 9.361419,48.95674 8.9470039,49.154374 7.6544933,49.682795 6.8069244,50.029308 6.5880339,50.03312 5.9620545,49.712255 5.7819474,49.619929 5.4766537,49.398315 5.2836518,49.219785 4.9703223,48.92995 4.9328335,48.846426 4.9336176,48.439924 c 0.00126,-0.655175 0.4032953,-1.318513 1.0460527,-1.725949 0.273396,-0.173302 0.8123074,-0.5463 1.1975806,-0.828883 0.3852734,-0.282583 1.0006873,-0.714566 1.3675866,-0.959963 0.8493596,-0.568085 1.3115977,-1.134712 1.5983755,-1.959341 0.194221,-0.558481 0.212012,-0.701508 0.121407,-0.976043 C 10.046144,41.327744 8.9724619,40.600645 7.7868307,40.31178 6.8909019,40.093497 6.6044847,39.962933 6.1797023,39.579169 5.9792206,39.398046 5.6344148,39.177523 5.4134672,39.089117 5.1875308,38.998716 4.9794536,38.841971 4.9379507,38.730909 4.7274574,38.167631 4.7318473,38.146371 5.1696071,37.608976 c 0.5114076,-0.627805 0.6535987,-0.707238 1.8686105,-1.043861 0.5146715,-0.142593 1.0730109,-0.360551 1.2407542,-0.484353 0.3441976,-0.254033 0.6775669,-0.838873 0.6775669,-1.188675 0,-0.563897 -0.4748446,-0.990683 -1.1022397,-0.990683 -0.3481779,0 -0.767414,-0.176922 -1.4080224,-0.594197 C 6.1721763,33.128665 5.6668624,32.911679 5.323357,32.825016 4.9798515,32.738353 4.5013966,32.608211 4.2601239,32.535813 4.0188512,32.463415 3.7621933,32.40418 3.6897731,32.40418 c -0.2227619,0 -0.4140627,-0.299375 -0.6191998,-0.969016 -0.2624872,-0.85685 -0.2580641,-1.386902 0.014031,-1.681478 0.4348021,-0.470725 1.5878194,-0.7239 2.1765411,-0.477917 0.4851903,0.202725 1.2005791,0.167757 3.2628897,-0.159492 0.9543611,-0.151437 1.1966639,-0.419453 1.5495429,-1.713982 0.164857,-0.60477 0.278931,-0.82549 0.609028,-1.178389 0.56516,-0.604201 0.707894,-0.925898 0.800958,-1.805221 0.08339,-0.787905 0.185685,-1.35092 0.436278,-2.40122 0.173041,-0.725257 0.122953,-1.304056 -0.197911,-2.286993 -0.25252,-0.773574 -0.37271,-0.988215 -0.971571,-1.735091 -0.586215,-0.731103 -0.6757,-0.993705 -0.678224,-1.990327 -0.0018,-0.722353 0.150394,-1.117523 0.595789,-1.546655 0.391825,-0.377517 1.277914,-0.90595 1.932465,-1.152455 0.937219,-0.352958 1.236698,-0.387749 3.889068,-0.4518 l 2.245839,-0.05423 0.441088,-0.277993 c 0.385992,-0.24327 0.433329,-0.307555 0.378978,-0.51467 -0.220126,-0.838841 0.04748,-1.303132 0.9045,-1.5693 0.286701,-0.08904 0.53531,-0.194085 0.552466,-0.23343 0.07322,-0.167921 0.602285,-0.0647 0.771591,0.150535 0.319649,0.406368 0.773502,0.541046 2.101649,0.623652 1.507903,0.09379 1.752081,0.198281 2.474611,1.059001 1.681513,2.003115 1.871224,2.197935 2.385136,2.449368 0.665834,0.325762 1.047833,0.266647 1.6751,-0.259228 0.273535,-0.22932 0.415958,-0.307552 0.356021,-0.195561 -0.05494,0.102666 -0.165364,0.240995 -0.245374,0.307398 -0.335523,0.278458 -0.01812,0.940005 0.451009,0.940005 0.414452,0 1.040049,-0.280269 1.298444,-0.581706 0.141535,-0.165111 0.257336,-0.254311 0.257336,-0.198223 0,0.05609 -0.06317,0.154399 -0.140365,0.21847 -0.181152,0.150343 -0.179814,0.557071 0.0027,0.817631 0.23802,0.33982 1.437577,0.457216 2.017743,0.197468 0.493147,-0.220788 0.489465,-0.221855 0.325902,0.09444 -0.180041,0.348161 -0.07707,0.736256 0.262556,0.989593 0.230293,0.171781 0.392467,0.19349 1.445399,0.19349 1.111824,0 1.212341,-0.0154 1.607098,-0.246255 0.399515,-0.233635 0.770189,-0.362442 1.974198,-0.686023 0.619582,-0.166514 0.909429,-0.429939 1.360445,-1.23643 0.267648,-0.478599 0.333368,-0.70187 0.35434,-1.203818 0.04117,-0.985424 0.390567,-1.134109 1.106819,-0.471006 0.452822,0.41922 0.47321,0.798441 0.06928,1.288481 -0.349829,0.424403 -0.452482,0.860867 -0.254894,1.083762 0.247327,0.279002 0.480403,1.337253 0.51524,2.339376 l 0.03343,0.961664 -0.380376,0.569617 c -0.209204,0.31329 -0.380374,0.67177 -0.380374,0.796623 0,0.306299 0.326638,0.928124 0.53408,1.016733 0.27096,0.115743 1.065277,0.250967 1.592393,0.271089 0.268885,0.01026 0.512429,0.04221 0.541208,0.07099 0.02878,0.02878 -0.106997,0.186831 -0.301727,0.351225 -0.696884,0.588318 -0.871643,0.792968 -0.961217,1.125619 -0.199822,0.742082 0.277707,1.433371 1.072474,1.552554 0.2297,0.03444 0.466258,0.121214 0.525684,0.19282 0.0609,0.07338 0.279514,0.130192 0.500978,0.130192 0.216111,0 0.55651,0.07957 0.756442,0.176815 0.333223,0.162082 0.60474,0.172705 0.606301,0.02372 3.75e-4,-0.03309 0.187867,-0.350595 0.416709,-0.705558 0.375941,-0.583128 0.595405,-1.127686 0.748656,-1.857644 0.04357,-0.207507 0.171722,-0.310575 0.663363,-0.533495 0.678592,-0.307689 0.777224,-0.454827 0.975425,-1.455144 0.150569,-0.759925 0.422879,-1.644123 0.639476,-2.0764 0.09827,-0.196123 0.2062,-0.471173 0.239845,-0.611222 0.06668,-0.27757 0.369606,-0.491642 0.580945,-0.410544 0.313373,0.120253 0.03012,1.934984 -0.628394,4.025992 -0.09588,0.304435 -0.17432,0.622732 -0.17432,0.707327 0,0.0846 -0.153492,0.403989 -0.341096,0.709764 -0.187602,0.305774 -0.448258,0.745446 -0.579234,0.977048 -0.130976,0.231601 -0.488869,0.694805 -0.79532,1.029341 -1.028881,1.123176 -1.280863,1.728174 -0.987736,2.371516 0.252876,0.555002 0.746137,0.557215 1.933452,0.0087 0.271343,-0.12536 0.515958,-0.227929 0.543588,-0.227929 0.145129,0 -0.102788,0.181041 -0.575297,0.420108 -0.705019,0.356706 -0.858397,0.684208 -0.690642,1.474703 0.06398,0.301475 0.198645,0.652792 0.299261,0.780704 0.234029,0.29752 1.08018,0.784793 1.364781,0.785937 0.120199,4.68e-4 0.520239,-0.150283 0.888978,-0.335036 0.692376,-0.346906 1.836905,-0.727856 1.924278,-0.640483 0.115013,0.115013 -0.195043,0.39784 -0.934233,0.85219 -0.433122,0.266222 -0.832254,0.487296 -0.886959,0.491276 -0.190093,0.01383 -0.578025,0.523778 -0.636636,0.836878 -0.03243,0.173233 -0.185366,0.458937 -0.339861,0.634897 -0.220622,0.251273 -0.2809,0.407806 -0.2809,0.729446 0,0.342414 0.04718,0.449218 0.28791,0.65178 0.158349,0.133242 0.358369,0.242324 0.444489,0.242404 0.08612,8e-5 0.0092,0.07377 -0.170939,0.163759 -0.337981,0.16884 -0.384012,0.265818 -0.6405,1.349395 -0.134707,0.569093 -0.0028,0.963997 0.393309,1.17719 0.277626,0.149437 0.282087,0.160075 0.08018,0.191244 -0.273827,0.04227 -0.88033,0.653414 -1.092797,1.101152 -0.224165,0.472392 -0.13956,0.948816 0.227213,1.279472 0.346949,0.312786 0.352196,0.411152 0.03934,0.737698 -0.161019,0.168068 -0.259796,0.393707 -0.288993,0.660155 -0.06159,0.562016 0.230293,0.975535 0.948203,1.343376 0.579428,0.296884 1.010713,0.825113 1.137096,1.392693 0.09509,0.427048 0.843792,1.098806 1.496022,1.34228 0.311186,0.116163 0.850604,0.398272 1.198709,0.626907 0.427996,0.281109 0.774671,0.433887 1.070739,0.47187 0.784057,0.100589 1.239806,0.235729 1.600938,0.474714 0.195065,0.129088 0.518478,0.257491 0.718694,0.285339 0.200216,0.02785 0.595631,0.149161 0.878701,0.269584 0.283069,0.120422 0.926902,0.330393 1.430738,0.466601 1.525228,0.412332 1.789661,0.571016 1.734235,1.040699 -0.02635,0.223316 -0.110598,0.284119 -0.668011,0.482126 -0.739721,0.262768 -0.918596,0.238258 -1.500005,-0.205542 -0.607332,-0.463589 -1.280935,-0.801543 -1.597613,-0.801543 -0.16066,0 -0.471632,-0.135545 -0.749358,-0.326629 -0.737031,-0.5071 -1.458747,-0.725531 -2.43984,-0.738428 -0.463205,-0.0061 -0.952032,0.02358 -1.086283,0.06593 -0.20254,0.06389 -0.298119,0.02662 -0.56146,-0.218976 -0.174552,-0.162787 -0.516057,-0.431961 -0.758901,-0.598164 -0.242843,-0.166202 -0.585289,-0.483849 -0.76099,-0.705882 -0.499296,-0.630957 -1.025867,-0.940579 -1.595462,-0.938126 -0.763635,0.0033 -1.773026,0.550449 -2.068097,1.121052 -0.314799,0.608754 -0.05246,1.292971 0.689623,1.798622 0.238367,0.162423 0.664997,0.513433 0.948066,0.780023 0.28307,0.266589 0.680721,0.627072 0.883669,0.801072 0.202948,0.174 0.472281,0.41111 0.598518,0.526911 0.126237,0.115801 0.305537,0.210547 0.398445,0.210547 0.418242,0 1.23926,0.297956 1.804256,0.654782 0.602667,0.380617 0.632069,0.388571 1.296575,0.350746 0.373958,-0.02129 0.918406,-0.09573 1.209883,-0.165427 0.510525,-0.122077 0.542077,-0.11842 0.860441,0.09973 0.488479,0.334711 0.572023,0.583699 0.303722,0.905196 -0.119544,0.143246 -0.28213,0.386874 -0.361303,0.541397 -0.245132,0.478428 -0.505532,0.644874 -1.097423,0.701463 -0.300603,0.02874 -0.647786,0.02518 -0.771518,-0.0079 z M 41.597771,47.747867 c 0.342331,-0.208712 0.382927,-0.533423 0.06041,-0.483203 -0.175024,0.02725 -0.603408,0.454671 -0.604391,0.603027 -8.42e-4,0.124258 0.22535,0.07444 0.54398,-0.119824 z M 14.753961,35.26218 c 0.09951,-0.09006 0.19383,-0.275161 0.2096,-0.411345 0.02755,-0.237963 0.05783,-0.250311 0.777284,-0.317014 2.163144,-0.200552 2.797699,-0.345611 3.432053,-0.784572 0.485019,-0.335623 0.669596,-0.778762 0.677183,-1.625798 0.0049,-0.545998 -0.03622,-0.774542 -0.185172,-1.029341 -0.2595,-0.443919 -1.009885,-0.997365 -1.612324,-1.189172 l -0.495561,-0.157777 0.334954,-0.202153 c 0.766621,-0.462674 1.092857,-0.943337 1.092857,-1.61017 0,-0.971284 -0.90394,-1.423982 -2.846289,-1.425433 l -0.725219,-5.42e-4 0,-0.327518 c 0,-0.312489 -0.01517,-0.327518 -0.330524,-0.327518 -0.420771,0 -0.912022,0.204696 -1.212595,0.505269 l -0.234837,0.234836 -0.005,3.536766 c -0.0028,1.945221 -0.0405,3.87364 -0.08384,4.285376 -0.104436,0.992248 -0.03986,1.112311 0.566906,1.054009 0.252802,-0.02429 0.541058,-0.117847 0.640568,-0.207903 z m 0.472212,-3.325882 0,-1.497224 0.463278,0 c 1.169786,0 2.132491,0.458167 2.444423,1.16334 0.224551,0.507635 0.15122,0.751367 -0.350592,1.16527 -0.509148,0.419953 -1.23013,0.665837 -1.95237,0.665837 l -0.604739,0 0,-1.497223 z m 0.09358,-3.514158 0,-1.164665 0.304124,0.0015 c 0.560157,0.0027 1.415349,0.255398 1.588675,0.469446 0.185411,0.228972 0.214309,0.573836 0.07059,0.842379 -0.123675,0.231088 -0.763219,0.603127 -1.432801,0.833496 l -0.530588,0.182551 0,-1.164666 z m 28.265613,6.298058 c 0.003,-0.06433 7.48e-4,-0.569647 -0.0051,-1.122918 -0.0058,-0.553271 0.01282,-1.005947 0.04137,-1.005947 0.02855,0 0.447289,0.273753 0.930535,0.608342 1.545305,1.069931 2.679124,1.455818 2.749196,0.93567 0.0188,-0.139588 -0.123892,-0.282261 -0.56146,-0.561373 -0.464341,-0.296188 -1.898154,-1.383995 -2.130687,-1.616512 -0.02573,-0.02573 -7.49e-4,-0.06339 0.05559,-0.0837 0.05631,-0.0203 0.424532,-0.2484 0.818276,-0.506888 0.801658,-0.526281 0.967316,-0.812589 0.652384,-1.127522 -0.159275,-0.159275 -0.998448,-0.451028 -1.30643,-0.454204 -0.05923,-6.55e-4 -0.366497,0.193431 -0.682805,0.431204 -0.316309,0.237773 -0.585902,0.416738 -0.599097,0.3977 -0.01319,-0.01904 0.01211,-0.829962 0.05623,-1.802051 0.04412,-0.97209 0.0583,-1.824564 0.03151,-1.894388 -0.04765,-0.124172 -0.596838,-0.501286 -0.731029,-0.501979 -0.214658,-0.0011 -0.600976,1.446574 -0.821282,3.077655 -0.167141,1.237478 -0.275696,4.803431 -0.151006,4.960516 0.176916,0.22288 0.643104,0.375867 1.157039,0.379699 0.329788,0.0025 0.493075,-0.03479 0.496745,-0.113308 z m -14.697,-0.297183 c 0.458149,-0.235946 0.826122,-0.597934 1.053415,-1.036282 0.271136,-0.522899 0.33176,-1.643914 0.122908,-2.272707 -0.355471,-1.070221 -1.939613,-1.985022 -3.437422,-1.985022 -0.398058,0 -1.062169,0.307938 -1.148327,0.532461 -0.04657,0.121372 0.272306,0.306366 0.538036,0.312134 0.06098,0.0013 -0.09967,0.109828 -0.357004,0.24112 -0.662052,0.337778 -0.966071,0.661142 -1.12512,1.196719 -0.435411,1.466188 0.194011,2.530831 1.811633,3.06431 0.689437,0.227371 2.052912,0.199085 2.541881,-0.05273 z m -2.246318,-0.767117 c -0.444177,-0.401286 -0.711455,-1.148713 -0.609383,-1.704096 0.07424,-0.403924 1.043403,-1.419151 1.354764,-1.419151 0.289006,0 0.921836,0.623302 1.030677,1.01516 0.215611,0.776254 0.06386,1.609023 -0.386728,2.122209 -0.405399,0.461723 -0.867828,0.457023 -1.38933,-0.01412 z m -3.622889,0.767474 c 0.180974,-0.180973 0.525148,-3.639323 0.408455,-4.104263 -0.07616,-0.303434 -0.638039,-0.531636 -1.483529,-0.602519 -0.50497,-0.04234 -0.636762,-0.02647 -0.64193,0.07727 -0.04477,0.898777 0.04133,4.278504 0.112387,4.411269 0.05143,0.09609 0.185498,0.211778 0.297934,0.257079 0.333353,0.134312 1.158046,0.1098 1.306683,-0.03884 z m 10.942518,-0.01423 c 1.82965,-0.0659 1.915543,-0.09543 1.813801,-0.623684 -0.103803,-0.538963 -0.167188,-0.576749 -1.056954,-0.630079 l -0.823808,-0.04938 0.02608,-1.310071 c 0.02709,-1.360802 0.172171,-3.315703 0.288204,-3.883423 0.06568,-0.321378 0.07714,-0.32843 0.610897,-0.37618 0.467136,-0.04179 0.583035,-0.0924 0.820658,-0.358344 0.152184,-0.170324 0.260343,-0.358972 0.240352,-0.41922 -0.03467,-0.104475 -0.965862,-0.192161 -4.111025,-0.387111 l -1.095488,-0.0679 -0.05763,0.22963 c -0.03184,0.126849 0.0061,0.382173 0.08476,0.570437 l 0.1424,0.340808 0.857865,0 0.857866,0 -0.05902,0.584853 c -0.0949,0.940419 -0.242825,3.521829 -0.243185,4.243675 l -3.74e-4,0.664376 -0.681249,-0.04372 c -0.863324,-0.05541 -0.957318,0.02706 -0.810605,0.711148 0.05615,0.261802 0.188961,0.586448 0.295143,0.721438 0.178286,0.226652 0.233254,0.241495 0.71828,0.193944 0.288871,-0.02832 1.271213,-0.07836 2.182983,-0.111199 z m 3.766369,-0.0047 c 0.0838,-0.03216 0.261145,-0.274286 0.394106,-0.538065 0.230523,-0.457334 1.387849,-2.023613 1.495251,-2.023613 0.02813,0 0.03637,0.579005 0.01832,1.286677 l -0.03283,1.286676 0.227243,0.03209 c 0.358236,0.05059 1.185586,-0.07753 1.369613,-0.212098 0.159954,-0.11696 0.157731,-0.162298 -0.0503,-1.025947 -0.182266,-0.756676 -0.207903,-1.043975 -0.157688,-1.767129 0.03298,-0.474953 0.08536,-0.954722 0.116393,-1.066151 0.08043,-0.288771 -0.293151,-0.504641 -0.981308,-0.567041 -0.509882,-0.04623 -0.590782,-0.02703 -0.922893,0.219118 -0.200211,0.148387 -0.560813,0.492274 -0.801335,0.764194 l -0.437313,0.4944 -0.02122,-0.4944 c -0.01167,-0.27192 -0.02291,-0.726002 -0.02497,-1.009071 l -0.0037,-0.51467 -0.547011,-0.02838 c -0.887862,-0.04606 -0.900142,-0.02029 -0.900986,1.891016 -3.74e-4,0.87983 -0.04459,1.870143 -0.09822,2.200694 -0.08831,0.544275 -0.08047,0.618042 0.083,0.781517 0.253477,0.253476 0.955484,0.413135 1.2759,0.290179 z m -13.724794,-4.99793 c 0.04255,-0.36476 -0.342447,-0.83633 -0.963429,-1.180084 -1.062049,-0.587912 -2.139281,-0.845383 -2.370642,-0.566611 -0.05551,0.06689 -0.129108,0.297828 -0.163548,0.513201 -0.11049,0.690964 0.215789,0.958504 1.329144,1.089862 0.263633,0.03111 0.705783,0.137961 0.982554,0.237458 0.276772,0.0995 0.650605,0.172451 0.83074,0.16212 0.274854,-0.01576 0.331966,-0.05692 0.355181,-0.255946 z m 27.998541,4.522834 c 0.0772,-0.02797 0.365959,-0.177709 0.641685,-0.332744 0.455826,-0.256304 0.491611,-0.263742 0.394326,-0.08196 -0.117679,0.219885 -0.664563,0.484556 -0.977256,0.472954 -0.135309,-0.005 -0.154138,-0.02369 -0.05875,-0.05825 z M 38.43318,14.810544 c -0.0772,-0.05058 -0.31933,-0.06621 -0.538066,-0.03473 -0.218735,0.03148 -0.3977,0.02013 -0.3977,-0.02524 0,-0.04536 0.115801,-0.249755 0.257335,-0.454205 0.141535,-0.204449 0.446829,-0.725846 0.678431,-1.15866 0.231602,-0.432814 0.489085,-0.82945 0.572185,-0.881414 0.115007,-0.07192 0.304957,-0.0062 0.795401,0.275321 0.608435,0.34921 0.767734,0.529357 0.921953,1.042616 0.105632,0.351555 -0.421328,0.787797 -1.307303,1.082245 -0.854907,0.284123 -0.79749,0.275117 -0.982236,0.154066 z"
         id="path3199"
         inkscape:connector-curvature="0" />
    </g>
    <path
       style="fill:#000000"
       d="m 53.18287,52.022995 c -0.594511,-0.407073 -1.140302,-0.740132 -1.212865,-0.740132 -0.07256,0 -0.501409,-0.196778 -0.952993,-0.437284 -0.451582,-0.240507 -1.339152,-0.651005 -1.972375,-0.912219 -0.633224,-0.261214 -1.39203,-0.708232 -1.686235,-0.993373 -0.502359,-0.486884 -0.657533,-0.532742 -2.549343,-0.7534 -1.107932,-0.129229 -2.428271,-0.244067 -2.934087,-0.255197 -0.789738,-0.01738 -0.909019,-0.0609 -0.844304,-0.308066 0.08659,-0.330699 -0.01924,-0.357328 -0.467238,-0.117569 -0.353823,0.18936 -0.433448,0.6515 -0.112543,0.653192 0.113075,6.58e-4 -0.01645,0.147586 -0.287829,0.326643 -0.271382,0.179058 -0.518092,0.252582 -0.548245,0.16339 -0.134652,-0.398294 -0.82452,-0.12438 -1.455632,0.577962 -0.400043,0.445196 -0.807196,0.740132 -1.021733,0.740132 -0.748305,0 -1.462319,0.457192 -1.911778,1.224138 -0.622607,1.062396 -1.163683,1.305933 -2.924949,1.31651 -1.339683,0.008 -1.470097,-0.02071 -1.745423,-0.384892 -0.226781,-0.299967 -0.394816,-0.369176 -0.706441,-0.290963 -0.59045,0.148194 -0.892975,-0.526375 -0.541166,-1.206698 0.352637,-0.681923 0.311341,-0.985367 -0.255798,-1.879651 L 28.549282,47.95298 27.57163,48.063589 c -0.900187,0.101845 -0.977651,0.08496 -0.977651,-0.213091 0,-0.352202 -0.912982,-1.008424 -1.40299,-1.008424 -0.162296,0 -0.621953,0.191557 -1.021459,0.425684 -0.399507,0.234127 -0.743948,0.400656 -0.765426,0.370066 -0.02148,-0.03059 -0.108184,-0.349181 -0.192679,-0.707982 -0.110198,-0.467929 -0.316377,-0.762869 -0.729288,-1.043239 -0.767671,-0.521255 -1.599418,-0.419013 -3.536184,0.434681 -0.814145,0.358862 -1.732227,0.705249 -2.040182,0.769749 l -0.559918,0.117273 0.104221,-0.997132 c 0.08188,-0.783432 0.04956,-1.051794 -0.150843,-1.252194 -0.647512,-0.647511 -1.992595,0.02917 -2.480158,1.247704 -0.219523,0.548641 -0.306552,0.619561 -0.653457,0.532493 -0.290134,-0.07282 -0.665624,0.06338 -1.365234,0.495204 -1.61215,0.995076 -5.3237283,2.732436 -5.8376729,2.732569 C 5.4072884,49.967092 4.4342012,49.365102 4.2952906,48.935418 4.1169154,48.383659 4.4122151,47.66427 5.0203297,47.169121 5.3521197,46.898967 6.2833764,46.215274 7.0897892,45.649806 8.6783226,44.535901 9.0594736,44.121564 9.3959295,43.14288 9.8144902,41.925368 9.0989794,41.101835 7.0130947,40.400307 5.8748274,40.017482 4.3079988,39.070462 4.1555332,38.673143 3.9224233,38.065668 4.7647427,37.325867 6.3321519,36.761439 7.6756822,36.277631 8.1593665,35.8267 8.1674544,35.050413 8.173118,34.506786 7.7060133,34.013126 7.1859661,34.013126 c -0.14073,0 -0.7809157,-0.25162 -1.4226348,-0.559156 C 5.1216121,33.146436 4.1756994,32.800628 3.6613032,32.685511 2.8345285,32.500488 2.699061,32.411645 2.493485,31.919633 2.2174492,31.258987 2.1363199,30.385789 2.3229221,30.083862 2.6057795,29.626189 3.4656685,29.431993 4.8058187,29.523131 6.3672498,29.629317 8.2573577,29.366809 8.6790317,28.9852 8.8455037,28.834544 9.106395,28.331418 9.2587901,27.867138 9.4111853,27.40286 9.7617682,26.735033 10.037863,26.383078 10.433027,25.87934 10.6086,25.389324 10.8629,24.080447 11.449292,21.062296 11.289528,19.932143 10.014688,18.08029 9.4849172,17.310736 9.4064789,17.073815 9.4064789,16.243211 c 0,-1.192122 0.3222873,-1.577974 2.0180411,-2.416061 l 1.202384,-0.594251 2.666103,-0.07493 c 2.28639,-0.06425 2.729769,-0.119848 3.113118,-0.390347 0.343066,-0.242074 0.442273,-0.441546 0.426625,-0.857803 -0.027,-0.71828 0.105237,-0.898193 0.912055,-1.240849 0.663972,-0.28199 0.694052,-0.280357 1.36022,0.07385 0.410891,0.218473 1.159107,0.409304 1.885424,0.480873 0.662305,0.06526 1.398548,0.219164 1.636096,0.342004 0.237547,0.122841 0.943102,0.819937 1.567899,1.549103 1.41292,1.648939 2.222338,2.087747 3.041926,1.649116 0.265239,-0.141952 0.318135,-0.115567 0.318135,0.158686 0,0.52529 0.548915,0.719418 1.229796,0.434928 0.458957,-0.191765 0.579415,-0.197849 0.579415,-0.02927 0,0.500878 0.613766,0.79033 1.552059,0.731953 0.900229,-0.05601 0.91549,-0.04951 0.91527,0.389557 -1.37e-4,0.273289 0.123197,0.512568 0.317911,0.616776 0.528638,0.282919 2.641969,0.200163 3.382523,-0.132457 0.361842,-0.162522 1.010488,-0.392844 1.441437,-0.511826 1.177854,-0.3252 2.089811,-1.566572 2.093829,-2.850158 0.0013,-0.42626 0.45576,-0.533036 0.829413,-0.194886 0.395589,0.358004 0.408,0.723987 0.04595,1.354831 -0.256584,0.44707 -0.257548,0.547498 -0.01316,1.370237 0.145048,0.488295 0.306276,1.304727 0.358288,1.814292 0.08129,0.796406 0.0345,1.033949 -0.33324,1.691911 -0.383586,0.686309 -0.406347,0.817234 -0.220201,1.266629 0.227778,0.549908 0.711704,0.802477 1.537554,0.802477 0.775767,0 0.82813,0.157494 0.25051,0.753447 -0.563146,0.58102 -0.714921,1.479749 -0.328521,1.945332 0.212615,0.256184 1.747296,0.798709 2.832321,1.001253 0.542263,0.101225 0.560842,0.08495 1.067276,-0.93502 0.283472,-0.570921 0.56008,-1.232205 0.614684,-1.46952 0.06381,-0.277339 0.280847,-0.506691 0.607531,-0.642008 0.633839,-0.262545 0.882788,-0.654378 1.146666,-1.8048 0.246718,-1.0756 0.964676,-2.796052 1.166816,-2.796052 0.44723,0 -0.336602,3.783311 -1.087321,5.248163 -0.212842,0.415319 -0.836891,1.347231 -1.386773,2.070916 -0.796778,1.048616 -0.999944,1.436937 -1.000565,1.912427 -9.87e-4,0.722594 0.322245,1.028206 0.984554,0.931 0.558038,-0.0819 0.564539,-0.07358 0.311686,0.398877 -0.24102,0.450349 0.0777,1.550268 0.567862,1.959727 0.621062,0.518807 1.275409,0.539273 2.379822,0.07443 1.43641,-0.604576 1.589306,-0.519865 0.417061,0.231067 -0.754653,0.483426 -1.142178,0.875171 -1.521382,1.537949 -0.593302,1.036984 -0.631865,1.42704 -0.18139,1.834716 0.270813,0.24508 0.288658,0.327682 0.103224,0.477792 -0.123307,0.09982 -0.310783,0.54126 -0.416615,0.980981 -0.164891,0.685103 -0.153359,0.859115 0.0806,1.216184 0.244031,0.372439 0.246128,0.431743 0.01975,0.558433 -0.334281,0.187072 -0.936743,1.172215 -0.936743,1.531754 0,0.15628 0.14096,0.482106 0.313247,0.72406 0.274154,0.385014 0.284417,0.479338 0.08224,0.755838 -0.127055,0.173759 -0.231009,0.558491 -0.231009,0.854959 0,0.46165 0.127768,0.633421 0.890001,1.196517 0.608977,0.449876 0.950763,0.841592 1.082434,1.240556 0.105838,0.320691 0.426964,0.757294 0.713617,0.970232 0.768734,0.571049 2.727013,1.546635 3.481711,1.734537 1.36986,0.341065 5.590533,1.832218 5.811506,2.053191 0.30618,0.30618 0.145288,0.526772 -0.55207,0.756921 -0.522413,0.172411 -0.646688,0.145466 -1.363635,-0.295677 -0.43386,-0.266958 -0.969813,-0.541512 -1.191004,-0.610122 -0.22119,-0.06861 -0.846245,-0.355732 -1.389008,-0.638048 C 55.757313,46.99387 55.446142,46.92264 54.31417,46.91198 l -1.309416,-0.01234 -1.075453,-0.989423 c -0.5915,-0.544183 -1.25282,-1.083633 -1.469603,-1.19878 -0.523426,-0.278023 -1.746413,-0.130561 -2.297338,0.277004 -1.026161,0.759139 -0.986973,1.693046 0.108798,2.592738 0.331207,0.271941 1.038099,0.882521 1.570869,1.356847 0.591003,0.526173 1.233223,0.933646 1.647215,1.045123 0.373201,0.100492 0.975013,0.334737 1.337365,0.520543 0.681729,0.349576 1.530204,0.423082 2.585109,0.223956 0.49586,-0.0936 0.674679,-0.05106 0.952266,0.226524 l 0.341765,0.341765 -0.360993,0.527997 c -0.8404,1.229194 -1.588611,1.276296 -3.161884,0.199051 l 0,5e-6 z M 14.114309,35.267742 c 0.156607,-0.343716 0.35673,-0.414058 1.682329,-0.591326 1.732508,-0.231681 2.787545,-0.634398 3.076507,-1.174331 0.11112,-0.20763 0.202036,-0.773107 0.202036,-1.256616 0,-0.737665 -0.07372,-0.956055 -0.458181,-1.357349 -0.252,-0.263031 -0.699278,-0.592647 -0.993951,-0.732477 l -0.535769,-0.254239 0.559271,-0.559271 c 0.447022,-0.447021 0.55927,-0.689497 0.55927,-1.20812 0,-1.008906 -0.864193,-1.522202 -2.562802,-1.522202 -0.724528,0 -0.886333,-0.05468 -0.973382,-0.328948 -0.13414,-0.422638 -0.66553,-0.423344 -1.356908,-0.0018 l -0.53454,0.325915 -6.01e-4,2.181693 c -3.29e-4,1.199933 -0.04885,3.236382 -0.107821,4.525444 l -0.10722,2.34375 0.687005,0 c 0.563307,0 0.719011,-0.07024 0.864757,-0.390121 z m 28.762565,-1.287504 c 0,-0.539751 0.05552,-0.956695 0.123378,-0.926541 0.06786,0.03015 0.641459,0.365033 1.274671,0.744178 2.272268,1.360552 2.997207,0.855858 0.98474,-0.685568 -0.686949,-0.526161 -1.189546,-1.005389 -1.116881,-1.064952 0.07267,-0.05956 0.413899,-0.314745 0.758297,-0.567069 0.833453,-0.610628 0.782466,-1.078854 -0.152689,-1.402156 -0.63038,-0.217938 -0.719602,-0.209691 -1.274671,0.117807 l -0.596845,0.352148 0,-1.794337 c 0,-1.666594 -0.02597,-1.812526 -0.364749,-2.049817 -0.29126,-0.204006 -0.406031,-0.21417 -0.569643,-0.05044 -0.400635,0.400911 -0.726567,2.514745 -0.822783,5.33613 l -0.09645,2.828462 0.474513,0.105332 c 0.260982,0.05793 0.548525,0.123817 0.638985,0.146411 0.09046,0.0226 0.293997,0.0075 0.452303,-0.03357 0.233623,-0.06059 0.287829,-0.259469 0.287829,-1.056015 l 0,0 z m -20.758157,0.715569 c 0.288796,-0.183222 0.555132,-2.016814 0.494972,-3.407648 l -0.04931,-1.140164 -0.95704,-0.227171 c -0.661742,-0.157078 -1.009747,-0.174464 -1.127862,-0.05635 -0.11345,0.113451 -0.130375,0.926017 -0.05039,2.419342 0.111465,2.081132 0.14645,2.259027 0.469968,2.389673 0.452574,0.182763 0.952359,0.191908 1.219671,0.02232 l 0,0 z m 6.235369,-0.182602 c 0.714773,-0.435822 1.035946,-1.126271 1.035946,-2.227052 0,-1.485194 -0.592716,-2.234967 -2.197515,-2.779811 -0.912637,-0.309849 -1.3513,-0.327441 -2.054259,-0.08239 -0.509067,0.177462 -0.695626,0.555171 -0.333786,0.675784 0.101298,0.03377 -0.08142,0.263976 -0.406042,0.511576 -0.991652,0.75637 -1.170341,2.184219 -0.396468,3.168041 0.800935,1.018222 3.217463,1.425694 4.352124,0.73385 l 0,0 z m 6.093511,0.05957 c 0.46531,-0.07063 0.53454,-0.1446 0.53454,-0.571173 0,-0.545986 -0.44087,-0.810845 -1.349688,-0.810845 l -0.505904,0 0.115857,-2.097039 c 0.165352,-2.992885 0.230677,-3.236418 0.885248,-3.300134 0.499932,-0.04866 1.198627,-0.727985 0.976847,-0.949764 -0.09517,-0.09517 -3.571454,-0.386376 -4.686505,-0.392589 -0.598036,-0.0033 -0.699013,0.04519 -0.699013,0.335865 0,0.732145 0.290993,0.976029 1.164556,0.976029 l 0.824034,0 -0.08365,0.53454 c -0.04601,0.293997 -0.130827,1.478207 -0.188486,2.631579 l -0.104838,2.097039 -0.745225,0 -0.745227,0 0.08911,0.664346 c 0.146367,1.091237 0.241184,1.135681 2.227645,1.044177 0.965891,-0.04449 1.996709,-0.117408 2.290705,-0.162031 l 0,0 z m 3.046153,-0.669464 c 0.292132,-0.422241 0.695341,-0.958837 0.896018,-1.192434 l 0.364869,-0.424725 0.0052,1.21336 0.0052,1.21336 0.825985,-0.07937 c 0.454291,-0.04365 0.870371,-0.123755 0.924623,-0.178006 0.05425,-0.05425 0.0065,-0.586959 -0.106115,-1.183795 -0.121905,-0.646067 -0.159933,-1.481325 -0.09398,-2.064241 0.10727,-0.948143 0.09718,-0.984252 -0.319393,-1.142632 -0.811029,-0.308354 -1.360638,-0.19427 -2.045686,0.42463 l -0.651042,0.588178 -0.110752,-0.834889 -0.110752,-0.834888 -0.626998,0 c -0.34485,0 -0.661449,0.05574 -0.703554,0.123869 -0.04211,0.06813 -0.131097,1.153057 -0.197758,2.410954 -0.111764,2.108962 -0.0977,2.304266 0.180521,2.50771 0.165947,0.121344 0.511141,0.220625 0.767099,0.220625 0.368519,0 0.575917,-0.159776 0.996524,-0.767709 l 0,0 z M 23.245515,29.653304 c 0.231939,-0.604424 -0.856132,-1.472271 -2.350309,-1.874612 -0.948308,-0.255353 -1.209122,-0.115098 -1.209122,0.650219 0,0.74822 0.06433,0.796266 1.558321,1.163854 1.458743,0.358916 1.881701,0.371712 2.00111,0.06054 z"
       id="path3261"
       inkscape:connector-curvature="0" />
  </g>
</svg>
