<?xml version="1.0" encoding="UTF-8" standalone="no"?>
<!-- Created with Inkscape (http://www.inkscape.org/) -->

<svg
   xmlns:dc="http://purl.org/dc/elements/1.1/"
   xmlns:cc="http://creativecommons.org/ns#"
   xmlns:rdf="http://www.w3.org/1999/02/22-rdf-syntax-ns#"
   xmlns:svg="http://www.w3.org/2000/svg"
   xmlns="http://www.w3.org/2000/svg"
   xmlns:sodipodi="http://sodipodi.sourceforge.net/DTD/sodipodi-0.dtd"
   xmlns:inkscape="http://www.inkscape.org/namespaces/inkscape"
   width="2048"
   height="2048"
   id="svg2"
   version="1.1"
   inkscape:version="0.48.2 r9819"
   sodipodi:docname="New document 1">
  <defs
     id="defs4" />
  <sodipodi:namedview
     id="base"
     pagecolor="#ffffff"
     bordercolor="#666666"
     borderopacity="1.0"
     inkscape:pageopacity="0.0"
     inkscape:pageshadow="2"
     inkscape:zoom="0.29857056"
     inkscape:cx="674.06245"
     inkscape:cy="763.25892"
     inkscape:document-units="px"
     inkscape:current-layer="layer1"
     showgrid="false"
     inkscape:window-width="1080"
     inkscape:window-height="835"
     inkscape:window-x="575"
     inkscape:window-y="396"
     inkscape:window-maximized="0" />
  <metadata
     id="metadata7">
    <rdf:RDF>
      <cc:Work
         rdf:about="">
        <dc:format>image/svg+xml</dc:format>
        <dc:type
           rdf:resource="http://purl.org/dc/dcmitype/StillImage" />
        <dc:title></dc:title>
      </cc:Work>
    </rdf:RDF>
  </metadata>
  <g
     inkscape:label="Layer 1"
     inkscape:groupmode="layer"
     id="layer1"
     transform="translate(0,995.63782)">
    <g
       style="display:inline"
       id="g3060"
       transform="matrix(34.527727,0,0,34.527732,-71.41091,-774.20261)">
      <g
         style="display:inline"
         inkscape:label="Layer 1"
         id="layer1-2">
        <g
           style="fill:#000000"
           transform="translate(-0.80884144,0.17178674)"
           id="g3197">
          <path
             inkscape:connector-curvature="0"
             id="path3199"
             d="m 55.161948,52.702224 c -0.273128,-0.07305 -0.838179,-0.435179 -1.702508,-1.091117 -0.358655,-0.272182 -0.746691,-0.491633 -0.869311,-0.491633 -0.253135,0 -0.76939,-0.250175 -1.234258,-0.598117 -0.175123,-0.131074 -0.596218,-0.329436 -0.935767,-0.440803 -0.339549,-0.111367 -0.664583,-0.239652 -0.722298,-0.285076 -0.05772,-0.04543 -0.31939,-0.146277 -0.581501,-0.224116 -0.373594,-0.110945 -0.563002,-0.244033 -0.876606,-0.615947 -0.609704,-0.723071 -0.730236,-0.761614 -2.507541,-0.801829 -1.296167,-0.02933 -1.605087,-0.06447 -1.924471,-0.218901 -0.270685,-0.130886 -0.575769,-0.183964 -1.057384,-0.183964 -0.742322,0 -0.853574,0.04243 -1.826223,0.69653 -0.354155,0.238166 -0.667169,0.409777 -0.695586,0.38136 -0.02842,-0.02842 -0.0018,-0.101498 0.05906,-0.162401 0.301549,-0.301548 -0.08552,-0.476177 -0.563295,-0.254133 -0.209936,0.09757 -0.81883,0.820011 -0.921639,1.09351 -0.06576,0.174949 -0.689482,0.394151 -1.126733,0.395983 -0.184906,7.49e-4 -0.517919,0.09751 -0.740029,0.214962 -0.329826,0.174415 -0.482579,0.354819 -0.833513,0.984382 -0.488577,0.87649 -0.731733,1.066378 -1.633245,1.275452 -0.690456,0.160128 -2.660165,0.125506 -2.943991,-0.05175 -0.09477,-0.05918 -0.217832,-0.228224 -0.273479,-0.375646 -0.07473,-0.197989 -0.163224,-0.268042 -0.338595,-0.268042 -0.13058,0 -0.275189,0.06749 -0.321352,0.149979 -0.127526,0.227877 -0.413414,0.118577 -0.514677,-0.196767 -0.04958,-0.154401 -0.147818,-0.347209 -0.218302,-0.428462 -0.191817,-0.221122 -0.157631,-0.397689 0.152575,-0.788032 0.327639,-0.412279 0.36697,-0.846599 0.106899,-1.18048 -0.09561,-0.122742 -0.23215,-0.385928 -0.303427,-0.584858 -0.254096,-0.709171 -0.875926,-0.984088 -1.498126,-0.662337 -0.15494,0.08012 -0.437089,0.13276 -0.626995,0.116971 -0.318611,-0.02649 -0.343735,-0.04996 -0.325227,-0.303869 0.02225,-0.305278 -0.110586,-0.520239 -0.32149,-0.520239 -0.07598,0 -0.25616,-0.126328 -0.400393,-0.280729 -0.409494,-0.438365 -0.990963,-0.345234 -1.833388,0.293646 -0.457937,0.347291 -0.682721,0.440475 -0.702463,0.291207 -0.0051,-0.0386 -0.02035,-0.175456 -0.03389,-0.304124 -0.04049,-0.384985 -0.225624,-0.978626 -0.352617,-1.130694 -0.06539,-0.0783 -0.304942,-0.266489 -0.532345,-0.418203 -0.361396,-0.241108 -0.496909,-0.275648 -1.076132,-0.274288 -0.622646,0.0015 -0.736144,0.03748 -1.879166,0.596294 -1.259068,0.61555 -2.406757,1.039738 -2.813128,1.039738 -0.326297,0 -0.36616,-0.184371 -0.233156,-1.078358 0.06371,-0.428254 0.08937,-0.862067 0.057,-0.964029 -0.0884,-0.278532 -0.63901,-0.505412 -1.042749,-0.429671 -0.435856,0.08177 -1.070299,0.567084 -1.279093,0.978442 -0.260182,0.512599 -0.724571,1.58399 -0.724571,1.671655 0,0.04388 -0.06316,0.132196 -0.140365,0.196267 -0.191635,0.159044 -0.188792,-0.04528 0.0058,-0.418512 0.134062,-0.2571 0.132249,-0.287509 -0.02397,-0.401873 -0.209059,-0.153047 -0.543773,-0.07793 -0.91762,0.205922 -0.154401,0.117234 -0.470222,0.308201 -0.701825,0.424369 -0.231602,0.116168 -0.509768,0.292316 -0.618146,0.391441 -0.108379,0.09913 -0.559156,0.322381 -1.001727,0.496127 -0.44257,0.173746 -0.9434298,0.419688 -1.1130205,0.546538 C 9.361419,48.95674 8.9470039,49.154374 7.6544933,49.682795 6.8069244,50.029308 6.5880339,50.03312 5.9620545,49.712255 5.7819474,49.619929 5.4766537,49.398315 5.2836518,49.219785 4.9703223,48.92995 4.9328335,48.846426 4.9336176,48.439924 c 0.00126,-0.655175 0.4032953,-1.318513 1.0460527,-1.725949 0.273396,-0.173302 0.8123074,-0.5463 1.1975806,-0.828883 0.3852734,-0.282583 1.0006873,-0.714566 1.3675866,-0.959963 0.8493596,-0.568085 1.3115977,-1.134712 1.5983755,-1.959341 0.194221,-0.558481 0.212012,-0.701508 0.121407,-0.976043 C 10.046144,41.327744 8.9724619,40.600645 7.7868307,40.31178 6.8909019,40.093497 6.6044847,39.962933 6.1797023,39.579169 5.9792206,39.398046 5.6344148,39.177523 5.4134672,39.089117 5.1875308,38.998716 4.9794536,38.841971 4.9379507,38.730909 4.7274574,38.167631 4.7318473,38.146371 5.1696071,37.608976 c 0.5114076,-0.627805 0.6535987,-0.707238 1.8686105,-1.043861 0.5146715,-0.142593 1.0730109,-0.360551 1.2407542,-0.484353 0.3441976,-0.254033 0.6775669,-0.838873 0.6775669,-1.188675 0,-0.563897 -0.4748446,-0.990683 -1.1022397,-0.990683 -0.3481779,0 -0.767414,-0.176922 -1.4080224,-0.594197 C 6.1721763,33.128665 5.6668624,32.911679 5.323357,32.825016 4.9798515,32.738353 4.5013966,32.608211 4.2601239,32.535813 4.0188512,32.463415 3.7621933,32.40418 3.6897731,32.40418 c -0.2227619,0 -0.4140627,-0.299375 -0.6191998,-0.969016 -0.2624872,-0.85685 -0.2580641,-1.386902 0.014031,-1.681478 0.4348021,-0.470725 1.5878194,-0.7239 2.1765411,-0.477917 0.4851903,0.202725 1.2005791,0.167757 3.2628897,-0.159492 0.9543611,-0.151437 1.1966639,-0.419453 1.5495429,-1.713982 0.164857,-0.60477 0.278931,-0.82549 0.609028,-1.178389 0.56516,-0.604201 0.707894,-0.925898 0.800958,-1.805221 0.08339,-0.787905 0.185685,-1.35092 0.436278,-2.40122 0.173041,-0.725257 0.122953,-1.304056 -0.197911,-2.286993 -0.25252,-0.773574 -0.37271,-0.988215 -0.971571,-1.735091 -0.586215,-0.731103 -0.6757,-0.993705 -0.678224,-1.990327 -0.0018,-0.722353 0.150394,-1.117523 0.595789,-1.546655 0.391825,-0.377517 1.277914,-0.90595 1.932465,-1.152455 0.937219,-0.352958 1.236698,-0.387749 3.889068,-0.4518 l 2.245839,-0.05423 0.441088,-0.277993 c 0.385992,-0.24327 0.433329,-0.307555 0.378978,-0.51467 -0.220126,-0.838841 0.04748,-1.303132 0.9045,-1.5693 0.286701,-0.08904 0.53531,-0.194085 0.552466,-0.23343 0.07322,-0.167921 0.602285,-0.0647 0.771591,0.150535 0.319649,0.406368 0.773502,0.541046 2.101649,0.623652 1.507903,0.09379 1.752081,0.198281 2.474611,1.059001 1.681513,2.003115 1.871224,2.197935 2.385136,2.449368 0.665834,0.325762 1.047833,0.266647 1.6751,-0.259228 0.273535,-0.22932 0.415958,-0.307552 0.356021,-0.195561 -0.05494,0.102666 -0.165364,0.240995 -0.245374,0.307398 -0.335523,0.278458 -0.01812,0.940005 0.451009,0.940005 0.414452,0 1.040049,-0.280269 1.298444,-0.581706 0.141535,-0.165111 0.257336,-0.254311 0.257336,-0.198223 0,0.05609 -0.06317,0.154399 -0.140365,0.21847 -0.181152,0.150343 -0.179814,0.557071 0.0027,0.817631 0.23802,0.33982 1.437577,0.457216 2.017743,0.197468 0.493147,-0.220788 0.489465,-0.221855 0.325902,0.09444 -0.180041,0.348161 -0.07707,0.736256 0.262556,0.989593 0.230293,0.171781 0.392467,0.19349 1.445399,0.19349 1.111824,0 1.212341,-0.0154 1.607098,-0.246255 0.399515,-0.233635 0.770189,-0.362442 1.974198,-0.686023 0.619582,-0.166514 0.909429,-0.429939 1.360445,-1.23643 0.267648,-0.478599 0.333368,-0.70187 0.35434,-1.203818 0.04117,-0.985424 0.390567,-1.134109 1.106819,-0.471006 0.452822,0.41922 0.47321,0.798441 0.06928,1.288481 -0.349829,0.424403 -0.452482,0.860867 -0.254894,1.083762 0.247327,0.279002 0.480403,1.337253 0.51524,2.339376 l 0.03343,0.961664 -0.380376,0.569617 c -0.209204,0.31329 -0.380374,0.67177 -0.380374,0.796623 0,0.306299 0.326638,0.928124 0.53408,1.016733 0.27096,0.115743 1.065277,0.250967 1.592393,0.271089 0.268885,0.01026 0.512429,0.04221 0.541208,0.07099 0.02878,0.02878 -0.106997,0.186831 -0.301727,0.351225 -0.696884,0.588318 -0.871643,0.792968 -0.961217,1.125619 -0.199822,0.742082 0.277707,1.433371 1.072474,1.552554 0.2297,0.03444 0.466258,0.121214 0.525684,0.19282 0.0609,0.07338 0.279514,0.130192 0.500978,0.130192 0.216111,0 0.55651,0.07957 0.756442,0.176815 0.333223,0.162082 0.60474,0.172705 0.606301,0.02372 3.75e-4,-0.03309 0.187867,-0.350595 0.416709,-0.705558 0.375941,-0.583128 0.595405,-1.127686 0.748656,-1.857644 0.04357,-0.207507 0.171722,-0.310575 0.663363,-0.533495 0.678592,-0.307689 0.777224,-0.454827 0.975425,-1.455144 0.150569,-0.759925 0.422879,-1.644123 0.639476,-2.0764 0.09827,-0.196123 0.2062,-0.471173 0.239845,-0.611222 0.06668,-0.27757 0.369606,-0.491642 0.580945,-0.410544 0.313373,0.120253 0.03012,1.934984 -0.628394,4.025992 -0.09588,0.304435 -0.17432,0.622732 -0.17432,0.707327 0,0.0846 -0.153492,0.403989 -0.341096,0.709764 -0.187602,0.305774 -0.448258,0.745446 -0.579234,0.977048 -0.130976,0.231601 -0.488869,0.694805 -0.79532,1.029341 -1.028881,1.123176 -1.280863,1.728174 -0.987736,2.371516 0.252876,0.555002 0.746137,0.557215 1.933452,0.0087 0.271343,-0.12536 0.515958,-0.227929 0.543588,-0.227929 0.145129,0 -0.102788,0.181041 -0.575297,0.420108 -0.705019,0.356706 -0.858397,0.684208 -0.690642,1.474703 0.06398,0.301475 0.198645,0.652792 0.299261,0.780704 0.234029,0.29752 1.08018,0.784793 1.364781,0.785937 0.120199,4.68e-4 0.520239,-0.150283 0.888978,-0.335036 0.692376,-0.346906 1.836905,-0.727856 1.924278,-0.640483 0.115013,0.115013 -0.195043,0.39784 -0.934233,0.85219 -0.433122,0.266222 -0.832254,0.487296 -0.886959,0.491276 -0.190093,0.01383 -0.578025,0.523778 -0.636636,0.836878 -0.03243,0.173233 -0.185366,0.458937 -0.339861,0.634897 -0.220622,0.251273 -0.2809,0.407806 -0.2809,0.729446 0,0.342414 0.04718,0.449218 0.28791,0.65178 0.158349,0.133242 0.358369,0.242324 0.444489,0.242404 0.08612,8e-5 0.0092,0.07377 -0.170939,0.163759 -0.337981,0.16884 -0.384012,0.265818 -0.6405,1.349395 -0.134707,0.569093 -0.0028,0.963997 0.393309,1.17719 0.277626,0.149437 0.282087,0.160075 0.08018,0.191244 -0.273827,0.04227 -0.88033,0.653414 -1.092797,1.101152 -0.224165,0.472392 -0.13956,0.948816 0.227213,1.279472 0.346949,0.312786 0.352196,0.411152 0.03934,0.737698 -0.161019,0.168068 -0.259796,0.393707 -0.288993,0.660155 -0.06159,0.562016 0.230293,0.975535 0.948203,1.343376 0.579428,0.296884 1.010713,0.825113 1.137096,1.392693 0.09509,0.427048 0.843792,1.098806 1.496022,1.34228 0.311186,0.116163 0.850604,0.398272 1.198709,0.626907 0.427996,0.281109 0.774671,0.433887 1.070739,0.47187 0.784057,0.100589 1.239806,0.235729 1.600938,0.474714 0.195065,0.129088 0.518478,0.257491 0.718694,0.285339 0.200216,0.02785 0.595631,0.149161 0.878701,0.269584 0.283069,0.120422 0.926902,0.330393 1.430738,0.466601 1.525228,0.412332 1.789661,0.571016 1.734235,1.040699 -0.02635,0.223316 -0.110598,0.284119 -0.668011,0.482126 -0.739721,0.262768 -0.918596,0.238258 -1.500005,-0.205542 -0.607332,-0.463589 -1.280935,-0.801543 -1.597613,-0.801543 -0.16066,0 -0.471632,-0.135545 -0.749358,-0.326629 -0.737031,-0.5071 -1.458747,-0.725531 -2.43984,-0.738428 -0.463205,-0.0061 -0.952032,0.02358 -1.086283,0.06593 -0.20254,0.06389 -0.298119,0.02662 -0.56146,-0.218976 -0.174552,-0.162787 -0.516057,-0.431961 -0.758901,-0.598164 -0.242843,-0.166202 -0.585289,-0.483849 -0.76099,-0.705882 -0.499296,-0.630957 -1.025867,-0.940579 -1.595462,-0.938126 -0.763635,0.0033 -1.773026,0.550449 -2.068097,1.121052 -0.314799,0.608754 -0.05246,1.292971 0.689623,1.798622 0.238367,0.162423 0.664997,0.513433 0.948066,0.780023 0.28307,0.266589 0.680721,0.627072 0.883669,0.801072 0.202948,0.174 0.472281,0.41111 0.598518,0.526911 0.126237,0.115801 0.305537,0.210547 0.398445,0.210547 0.418242,0 1.23926,0.297956 1.804256,0.654782 0.602667,0.380617 0.632069,0.388571 1.296575,0.350746 0.373958,-0.02129 0.918406,-0.09573 1.209883,-0.165427 0.510525,-0.122077 0.542077,-0.11842 0.860441,0.09973 0.488479,0.334711 0.572023,0.583699 0.303722,0.905196 -0.119544,0.143246 -0.28213,0.386874 -0.361303,0.541397 -0.245132,0.478428 -0.505532,0.644874 -1.097423,0.701463 -0.300603,0.02874 -0.647786,0.02518 -0.771518,-0.0079 z M 41.597771,47.747867 c 0.342331,-0.208712 0.382927,-0.533423 0.06041,-0.483203 -0.175024,0.02725 -0.603408,0.454671 -0.604391,0.603027 -8.42e-4,0.124258 0.22535,0.07444 0.54398,-0.119824 z M 14.753961,35.26218 c 0.09951,-0.09006 0.19383,-0.275161 0.2096,-0.411345 0.02755,-0.237963 0.05783,-0.250311 0.777284,-0.317014 2.163144,-0.200552 2.797699,-0.345611 3.432053,-0.784572 0.485019,-0.335623 0.669596,-0.778762 0.677183,-1.625798 0.0049,-0.545998 -0.03622,-0.774542 -0.185172,-1.029341 -0.2595,-0.443919 -1.009885,-0.997365 -1.612324,-1.189172 l -0.495561,-0.157777 0.334954,-0.202153 c 0.766621,-0.462674 1.092857,-0.943337 1.092857,-1.61017 0,-0.971284 -0.90394,-1.423982 -2.846289,-1.425433 l -0.725219,-5.42e-4 0,-0.327518 c 0,-0.312489 -0.01517,-0.327518 -0.330524,-0.327518 -0.420771,0 -0.912022,0.204696 -1.212595,0.505269 l -0.234837,0.234836 -0.005,3.536766 c -0.0028,1.945221 -0.0405,3.87364 -0.08384,4.285376 -0.104436,0.992248 -0.03986,1.112311 0.566906,1.054009 0.252802,-0.02429 0.541058,-0.117847 0.640568,-0.207903 z m 0.472212,-3.325882 0,-1.497224 0.463278,0 c 1.169786,0 2.132491,0.458167 2.444423,1.16334 0.224551,0.507635 0.15122,0.751367 -0.350592,1.16527 -0.509148,0.419953 -1.23013,0.665837 -1.95237,0.665837 l -0.604739,0 0,-1.497223 z m 0.09358,-3.514158 0,-1.164665 0.304124,0.0015 c 0.560157,0.0027 1.415349,0.255398 1.588675,0.469446 0.185411,0.228972 0.214309,0.573836 0.07059,0.842379 -0.123675,0.231088 -0.763219,0.603127 -1.432801,0.833496 l -0.530588,0.182551 0,-1.164666 z m 28.265613,6.298058 c 0.003,-0.06433 7.48e-4,-0.569647 -0.0051,-1.122918 -0.0058,-0.553271 0.01282,-1.005947 0.04137,-1.005947 0.02855,0 0.447289,0.273753 0.930535,0.608342 1.545305,1.069931 2.679124,1.455818 2.749196,0.93567 0.0188,-0.139588 -0.123892,-0.282261 -0.56146,-0.561373 -0.464341,-0.296188 -1.898154,-1.383995 -2.130687,-1.616512 -0.02573,-0.02573 -7.49e-4,-0.06339 0.05559,-0.0837 0.05631,-0.0203 0.424532,-0.2484 0.818276,-0.506888 0.801658,-0.526281 0.967316,-0.812589 0.652384,-1.127522 -0.159275,-0.159275 -0.998448,-0.451028 -1.30643,-0.454204 -0.05923,-6.55e-4 -0.366497,0.193431 -0.682805,0.431204 -0.316309,0.237773 -0.585902,0.416738 -0.599097,0.3977 -0.01319,-0.01904 0.01211,-0.829962 0.05623,-1.802051 0.04412,-0.97209 0.0583,-1.824564 0.03151,-1.894388 -0.04765,-0.124172 -0.596838,-0.501286 -0.731029,-0.501979 -0.214658,-0.0011 -0.600976,1.446574 -0.821282,3.077655 -0.167141,1.237478 -0.275696,4.803431 -0.151006,4.960516 0.176916,0.22288 0.643104,0.375867 1.157039,0.379699 0.329788,0.0025 0.493075,-0.03479 0.496745,-0.113308 z m -14.697,-0.297183 c 0.458149,-0.235946 0.826122,-0.597934 1.053415,-1.036282 0.271136,-0.522899 0.33176,-1.643914 0.122908,-2.272707 -0.355471,-1.070221 -1.939613,-1.985022 -3.437422,-1.985022 -0.398058,0 -1.062169,0.307938 -1.148327,0.532461 -0.04657,0.121372 0.272306,0.306366 0.538036,0.312134 0.06098,0.0013 -0.09967,0.109828 -0.357004,0.24112 -0.662052,0.337778 -0.966071,0.661142 -1.12512,1.196719 -0.435411,1.466188 0.194011,2.530831 1.811633,3.06431 0.689437,0.227371 2.052912,0.199085 2.541881,-0.05273 z m -2.246318,-0.767117 c -0.444177,-0.401286 -0.711455,-1.148713 -0.609383,-1.704096 0.07424,-0.403924 1.043403,-1.419151 1.354764,-1.419151 0.289006,0 0.921836,0.623302 1.030677,1.01516 0.215611,0.776254 0.06386,1.609023 -0.386728,2.122209 -0.405399,0.461723 -0.867828,0.457023 -1.38933,-0.01412 z m -3.622889,0.767474 c 0.180974,-0.180973 0.525148,-3.639323 0.408455,-4.104263 -0.07616,-0.303434 -0.638039,-0.531636 -1.483529,-0.602519 -0.50497,-0.04234 -0.636762,-0.02647 -0.64193,0.07727 -0.04477,0.898777 0.04133,4.278504 0.112387,4.411269 0.05143,0.09609 0.185498,0.211778 0.297934,0.257079 0.333353,0.134312 1.158046,0.1098 1.306683,-0.03884 z m 10.942518,-0.01423 c 1.82965,-0.0659 1.915543,-0.09543 1.813801,-0.623684 -0.103803,-0.538963 -0.167188,-0.576749 -1.056954,-0.630079 l -0.823808,-0.04938 0.02608,-1.310071 c 0.02709,-1.360802 0.172171,-3.315703 0.288204,-3.883423 0.06568,-0.321378 0.07714,-0.32843 0.610897,-0.37618 0.467136,-0.04179 0.583035,-0.0924 0.820658,-0.358344 0.152184,-0.170324 0.260343,-0.358972 0.240352,-0.41922 -0.03467,-0.104475 -0.965862,-0.192161 -4.111025,-0.387111 l -1.095488,-0.0679 -0.05763,0.22963 c -0.03184,0.126849 0.0061,0.382173 0.08476,0.570437 l 0.1424,0.340808 0.857865,0 0.857866,0 -0.05902,0.584853 c -0.0949,0.940419 -0.242825,3.521829 -0.243185,4.243675 l -3.74e-4,0.664376 -0.681249,-0.04372 c -0.863324,-0.05541 -0.957318,0.02706 -0.810605,0.711148 0.05615,0.261802 0.188961,0.586448 0.295143,0.721438 0.178286,0.226652 0.233254,0.241495 0.71828,0.193944 0.288871,-0.02832 1.271213,-0.07836 2.182983,-0.111199 z m 3.766369,-0.0047 c 0.0838,-0.03216 0.261145,-0.274286 0.394106,-0.538065 0.230523,-0.457334 1.387849,-2.023613 1.495251,-2.023613 0.02813,0 0.03637,0.579005 0.01832,1.286677 l -0.03283,1.286676 0.227243,0.03209 c 0.358236,0.05059 1.185586,-0.07753 1.369613,-0.212098 0.159954,-0.11696 0.157731,-0.162298 -0.0503,-1.025947 -0.182266,-0.756676 -0.207903,-1.043975 -0.157688,-1.767129 0.03298,-0.474953 0.08536,-0.954722 0.116393,-1.066151 0.08043,-0.288771 -0.293151,-0.504641 -0.981308,-0.567041 -0.509882,-0.04623 -0.590782,-0.02703 -0.922893,0.219118 -0.200211,0.148387 -0.560813,0.492274 -0.801335,0.764194 l -0.437313,0.4944 -0.02122,-0.4944 c -0.01167,-0.27192 -0.02291,-0.726002 -0.02497,-1.009071 l -0.0037,-0.51467 -0.547011,-0.02838 c -0.887862,-0.04606 -0.900142,-0.02029 -0.900986,1.891016 -3.74e-4,0.87983 -0.04459,1.870143 -0.09822,2.200694 -0.08831,0.544275 -0.08047,0.618042 0.083,0.781517 0.253477,0.253476 0.955484,0.413135 1.2759,0.290179 z m -13.724794,-4.99793 c 0.04255,-0.36476 -0.342447,-0.83633 -0.963429,-1.180084 -1.062049,-0.587912 -2.139281,-0.845383 -2.370642,-0.566611 -0.05551,0.06689 -0.129108,0.297828 -0.163548,0.513201 -0.11049,0.690964 0.215789,0.958504 1.329144,1.089862 0.263633,0.03111 0.705783,0.137961 0.982554,0.237458 0.276772,0.0995 0.650605,0.172451 0.83074,0.16212 0.274854,-0.01576 0.331966,-0.05692 0.355181,-0.255946 z m 27.998541,4.522834 c 0.0772,-0.02797 0.365959,-0.177709 0.641685,-0.332744 0.455826,-0.256304 0.491611,-0.263742 0.394326,-0.08196 -0.117679,0.219885 -0.664563,0.484556 -0.977256,0.472954 -0.135309,-0.005 -0.154138,-0.02369 -0.05875,-0.05825 z M 38.43318,14.810544 c -0.0772,-0.05058 -0.31933,-0.06621 -0.538066,-0.03473 -0.218735,0.03148 -0.3977,0.02013 -0.3977,-0.02524 0,-0.04536 0.115801,-0.249755 0.257335,-0.454205 0.141535,-0.204449 0.446829,-0.725846 0.678431,-1.15866 0.231602,-0.432814 0.489085,-0.82945 0.572185,-0.881414 0.115007,-0.07192 0.304957,-0.0062 0.795401,0.275321 0.608435,0.34921 0.767734,0.529357 0.921953,1.042616 0.105632,0.351555 -0.421328,0.787797 -1.307303,1.082245 -0.854907,0.284123 -0.79749,0.275117 -0.982236,0.154066 z"
             style="fill:#000000;fill-opacity:1" />
        </g>
      </g>
    </g>
  </g>
</svg>
